<svg width="300" height="300" viewBox="0 0 300 300" fill="none" xmlns="http://www.w3.org/2000/svg">
<circle cx="150" cy="150" r="150" fill="#AA2222"/>
<mask id="path-2-outside-1_64_4" maskUnits="userSpaceOnUse" x="74" y="60" width="154" height="183" fill="black">
<rect fill="white" x="74" y="60" width="154" height="183"/>
<path d="M127.777 213.51C126.757 218.043 123.244 220.82 117.237 221.84C111.684 222.86 106.414 222.237 101.427 219.97C95.874 217.59 93.4373 214.247 94.1173 209.94C93.4373 203.367 96.894 189.087 104.487 167.1C115.821 134.12 127.154 110.547 138.487 96.38C141.434 92.7533 143.927 90.43 145.967 89.41C148.121 88.2767 150.557 87.2567 153.277 86.35C155.997 85.4433 158.831 84.5933 161.777 83.8C167.671 82.2133 173.224 81.1367 178.437 80.57C183.764 79.89 188.524 80.5133 192.717 82.44C196.911 84.2533 200.141 86.9733 202.407 90.6C204.787 94.2267 206.261 98.5333 206.827 103.52C207.394 108.393 207.224 113.55 206.317 118.99C205.411 124.317 203.767 129.757 201.387 135.31C199.007 140.75 196.004 145.85 192.377 150.61C184.444 161.037 175.151 167.78 164.497 170.84L166.197 173.73C167.671 175.997 169.427 178.49 171.467 181.21C173.621 183.93 175.717 186.707 177.757 189.54C179.911 192.373 181.837 195.207 183.537 198.04C185.237 200.873 186.484 203.537 187.277 206.03C189.091 211.583 187.674 215.607 183.027 218.1C179.287 220.367 176.341 220.933 174.187 219.8C173.281 219.233 172.374 218.497 171.467 217.59C170.561 216.797 169.314 216.117 167.727 215.55C161.041 217.477 155.941 215.777 152.427 210.45C150.274 207.05 148.631 203.933 147.497 201.1C146.364 198.267 145.401 195.887 144.607 193.96C142.567 189.767 140.244 186.14 137.637 183.08C136.391 186.14 134.974 190.05 133.387 194.81C131.461 200.817 129.307 207.05 126.927 213.51H127.777ZM162.117 114.57C159.964 119.443 158.491 122.843 157.697 124.77C156.111 128.623 154.354 132.873 152.427 137.52C152.087 140.013 151.804 141.77 151.577 142.79L153.957 140.41L156.847 139.05C158.887 137.917 160.757 136.897 162.457 135.99C164.157 135.083 165.687 133.95 167.047 132.59C169.654 129.983 171.921 125.733 173.847 119.84C173.847 118.707 174.017 117.573 174.357 116.44C174.811 115.307 175.094 114.173 175.207 113.04C175.661 110.547 174.641 108.79 172.147 107.77C169.881 107.543 167.047 109.413 163.647 113.38C162.967 114.173 162.457 114.57 162.117 114.57Z"/>
</mask>
<path d="M127.777 213.51C126.757 218.043 123.244 220.82 117.237 221.84C111.684 222.86 106.414 222.237 101.427 219.97C95.874 217.59 93.4373 214.247 94.1173 209.94C93.4373 203.367 96.894 189.087 104.487 167.1C115.821 134.12 127.154 110.547 138.487 96.38C141.434 92.7533 143.927 90.43 145.967 89.41C148.121 88.2767 150.557 87.2567 153.277 86.35C155.997 85.4433 158.831 84.5933 161.777 83.8C167.671 82.2133 173.224 81.1367 178.437 80.57C183.764 79.89 188.524 80.5133 192.717 82.44C196.911 84.2533 200.141 86.9733 202.407 90.6C204.787 94.2267 206.261 98.5333 206.827 103.52C207.394 108.393 207.224 113.55 206.317 118.99C205.411 124.317 203.767 129.757 201.387 135.31C199.007 140.75 196.004 145.85 192.377 150.61C184.444 161.037 175.151 167.78 164.497 170.84L166.197 173.73C167.671 175.997 169.427 178.49 171.467 181.21C173.621 183.93 175.717 186.707 177.757 189.54C179.911 192.373 181.837 195.207 183.537 198.04C185.237 200.873 186.484 203.537 187.277 206.03C189.091 211.583 187.674 215.607 183.027 218.1C179.287 220.367 176.341 220.933 174.187 219.8C173.281 219.233 172.374 218.497 171.467 217.59C170.561 216.797 169.314 216.117 167.727 215.55C161.041 217.477 155.941 215.777 152.427 210.45C150.274 207.05 148.631 203.933 147.497 201.1C146.364 198.267 145.401 195.887 144.607 193.96C142.567 189.767 140.244 186.14 137.637 183.08C136.391 186.14 134.974 190.05 133.387 194.81C131.461 200.817 129.307 207.05 126.927 213.51H127.777ZM162.117 114.57C159.964 119.443 158.491 122.843 157.697 124.77C156.111 128.623 154.354 132.873 152.427 137.52C152.087 140.013 151.804 141.77 151.577 142.79L153.957 140.41L156.847 139.05C158.887 137.917 160.757 136.897 162.457 135.99C164.157 135.083 165.687 133.95 167.047 132.59C169.654 129.983 171.921 125.733 173.847 119.84C173.847 118.707 174.017 117.573 174.357 116.44C174.811 115.307 175.094 114.173 175.207 113.04C175.661 110.547 174.641 108.79 172.147 107.77C169.881 107.543 167.047 109.413 163.647 113.38C162.967 114.173 162.457 114.57 162.117 114.57Z" fill="white"/>
<path d="M127.777 213.51L147.29 217.9L152.777 193.51H127.777V213.51ZM117.237 221.84L113.889 202.122L113.757 202.145L113.624 202.169L117.237 221.84ZM101.427 219.97L109.703 201.763L109.506 201.673L109.306 201.587L101.427 219.97ZM94.1173 209.94L113.873 213.059L114.28 210.48L114.011 207.882L94.1173 209.94ZM104.487 167.1L123.392 173.629L123.397 173.614L123.402 173.6L104.487 167.1ZM138.487 96.38L122.965 83.7681L122.917 83.8269L122.87 83.8861L138.487 96.38ZM145.967 89.41L154.912 107.299L155.098 107.205L155.282 107.108L145.967 89.41ZM153.277 86.35L146.953 67.3763L146.953 67.3763L153.277 86.35ZM161.777 83.8L156.578 64.4877L156.578 64.4877L161.777 83.8ZM178.437 80.57L180.599 100.453L180.784 100.433L180.97 100.409L178.437 80.57ZM192.717 82.44L184.367 100.614L184.572 100.708L184.779 100.797L192.717 82.44ZM202.407 90.6L185.447 101.2L185.565 101.388L185.686 101.573L202.407 90.6ZM206.827 103.52L186.955 105.778L186.958 105.804L186.961 105.83L206.827 103.52ZM206.317 118.99L226.034 122.346L226.04 122.312L226.045 122.278L206.317 118.99ZM201.387 135.31L219.71 143.326L219.741 143.257L219.77 143.188L201.387 135.31ZM192.377 150.61L176.469 138.489L176.461 138.5L192.377 150.61ZM164.497 170.84L158.976 151.617L134.176 158.741L147.259 180.98L164.497 170.84ZM166.197 173.73L148.959 183.87L149.185 184.255L149.428 184.63L166.197 173.73ZM171.467 181.21L155.467 193.21L155.624 193.419L155.786 193.624L171.467 181.21ZM177.757 189.54L161.527 201.226L161.678 201.436L161.834 201.642L177.757 189.54ZM183.537 198.04L200.687 187.75L200.687 187.75L183.537 198.04ZM187.277 206.03L168.219 212.094L168.242 212.166L168.265 212.238L187.277 206.03ZM183.027 218.1L173.571 200.477L173.109 200.725L172.661 200.996L183.027 218.1ZM174.187 219.8L163.587 236.76L164.216 237.153L164.872 237.498L174.187 219.8ZM171.467 217.59L185.609 203.448L185.139 202.977L184.637 202.538L171.467 217.59ZM167.727 215.55L174.454 196.715L168.384 194.547L162.19 196.332L167.727 215.55ZM152.427 210.45L135.531 221.151L135.63 221.307L135.732 221.462L152.427 210.45ZM147.497 201.1L128.928 208.528L128.928 208.528L147.497 201.1ZM144.607 193.96L163.101 186.345L162.864 185.77L162.592 185.211L144.607 193.96ZM137.637 183.08L152.862 170.111L131.528 145.066L119.115 175.534L137.637 183.08ZM133.387 194.81L114.414 188.485L114.378 188.593L114.343 188.701L133.387 194.81ZM126.927 213.51L108.16 206.596L98.2448 233.51H126.927V213.51ZM162.117 114.57V94.57H149.089L143.824 106.487L162.117 114.57ZM157.697 124.77L139.204 117.155L139.204 117.155L157.697 124.77ZM152.427 137.52L133.953 129.86L132.961 132.252L132.611 134.818L152.427 137.52ZM151.577 142.79L132.054 138.451L117.155 205.497L165.719 156.932L151.577 142.79ZM153.957 140.41L145.441 122.314L142.283 123.8L139.815 126.268L153.957 140.41ZM156.847 139.05L165.363 157.146L165.972 156.86L166.56 156.533L156.847 139.05ZM162.457 135.99L171.869 153.637L171.869 153.637L162.457 135.99ZM173.847 119.84L192.857 126.055L193.847 123.026V119.84H173.847ZM174.357 116.44L155.788 109.012L155.457 109.84L155.201 110.693L174.357 116.44ZM175.207 113.04L155.53 109.462L155.386 110.252L155.307 111.05L175.207 113.04ZM172.147 107.77L179.72 89.2591L177.03 88.1585L174.137 87.8693L172.147 107.77ZM163.647 113.38L178.832 126.396L178.832 126.396L163.647 113.38ZM108.265 209.12C108.46 208.252 108.848 207.168 109.548 206.04C110.253 204.903 111.112 203.985 111.976 203.301C113.63 201.994 114.725 201.98 113.889 202.122L120.586 241.558C125.757 240.68 131.611 238.767 136.778 234.684C142.274 230.34 145.815 224.455 147.29 217.9L108.265 209.12ZM113.624 202.169C111.959 202.475 110.85 202.284 109.703 201.763L93.1513 238.177C101.978 242.19 111.409 243.245 120.85 241.511L113.624 202.169ZM109.306 201.587C108.407 201.202 109.94 201.624 111.598 203.898C112.493 205.126 113.267 206.694 113.684 208.513C114.097 210.311 114.057 211.891 113.873 213.059L74.3621 206.821C73.2434 213.906 74.7427 221.243 79.272 227.457C83.3659 233.075 88.8942 236.358 93.549 238.353L109.306 201.587ZM114.011 207.882C114.052 208.28 113.952 205.97 115.638 199.005C117.158 192.728 119.698 184.325 123.392 173.629L85.583 160.571C81.6836 171.862 78.6985 181.592 76.7612 189.595C74.9906 196.91 73.5024 205.027 74.2235 211.998L114.011 207.882ZM123.402 173.6C134.545 141.172 144.985 120.273 154.105 108.874L122.87 83.8861C109.323 100.82 97.0959 127.068 85.573 160.6L123.402 173.6ZM154.01 108.992C155.098 107.652 155.826 106.9 156.202 106.55C156.377 106.386 156.384 106.397 156.223 106.515C156.073 106.626 155.632 106.938 154.912 107.299L137.023 71.5214C130.945 74.5604 126.213 79.7706 122.965 83.7681L154.01 108.992ZM155.282 107.108C156.324 106.56 157.735 105.946 159.602 105.324L146.953 67.3763C143.379 68.5675 139.918 69.993 136.652 71.7116L155.282 107.108ZM159.602 105.324C161.927 104.548 164.384 103.81 166.977 103.112L156.578 64.4877C153.277 65.3764 150.067 66.3382 146.953 67.3763L159.602 105.324ZM166.977 103.112C172.031 101.752 176.561 100.892 180.599 100.453L176.276 60.6871C169.887 61.3816 163.31 62.6751 156.578 64.4877L166.977 103.112ZM180.97 100.409C183.203 100.124 184.099 100.49 184.367 100.614L201.067 64.2665C192.949 60.5363 184.325 59.656 175.905 60.731L180.97 100.409ZM184.779 100.797C185.233 100.994 185.394 101.132 185.402 101.138C185.413 101.147 185.412 101.147 185.408 101.143C185.405 101.14 185.419 101.154 185.447 101.2L219.367 80C214.8 72.6928 208.306 67.391 200.656 64.0829L184.779 100.797ZM185.686 101.573C186.097 102.199 186.687 103.414 186.955 105.778L226.699 101.262C225.835 93.6527 223.478 86.2544 219.128 79.6269L185.686 101.573ZM186.961 105.83C187.286 108.626 187.225 111.886 186.589 115.702L226.045 122.278C227.223 115.214 227.502 108.161 226.693 101.21L186.961 105.83ZM186.601 115.634C185.988 119.235 184.835 123.16 183.004 127.432L219.77 143.188C222.7 136.353 224.833 129.398 226.034 122.346L186.601 115.634ZM183.064 127.294C181.328 131.263 179.138 134.986 176.469 138.489L208.286 162.731C212.87 156.714 216.687 150.237 219.71 143.326L183.064 127.294ZM176.461 138.5C170.646 146.142 164.773 149.952 158.976 151.617L170.019 190.063C185.529 185.608 198.242 175.931 208.294 162.72L176.461 138.5ZM147.259 180.98L148.959 183.87L183.436 163.59L181.736 160.7L147.259 180.98ZM149.428 184.63C151.198 187.353 153.224 190.218 155.467 193.21L187.467 169.21C185.631 166.762 184.143 164.641 182.966 162.83L149.428 184.63ZM155.786 193.624C157.75 196.104 159.663 198.638 161.527 201.226L193.988 177.854C191.771 174.775 189.492 171.756 187.148 168.796L155.786 193.624ZM161.834 201.642C163.579 203.938 165.09 206.168 166.387 208.33L200.687 187.75C198.584 184.245 196.242 180.809 193.681 177.438L161.834 201.642ZM166.387 208.33C167.488 210.164 168 211.405 168.219 212.094L206.336 199.966C204.968 195.668 202.987 191.583 200.687 187.75L166.387 208.33ZM168.265 212.238C168.263 212.233 168.221 212.103 168.174 211.86C168.126 211.615 168.07 211.235 168.049 210.736C168.006 209.707 168.123 208.239 168.71 206.57C170.027 202.83 172.585 201.006 173.571 200.477L192.484 235.723C198.117 232.701 203.706 227.618 206.44 219.855C209.065 212.399 208.064 205.257 206.289 199.822L168.265 212.238ZM172.661 200.996C171.975 201.412 172.574 200.904 174.235 200.585C176.152 200.216 179.695 200.098 183.502 202.102L164.872 237.498C176.939 243.849 188.411 238.224 193.393 235.204L172.661 200.996ZM184.787 202.84C185.388 203.216 185.651 203.489 185.609 203.448L157.325 231.732C159.097 233.504 161.173 235.251 163.587 236.76L184.787 202.84ZM184.637 202.538C181.248 199.573 177.533 197.815 174.454 196.715L161.001 234.385C160.987 234.38 160.717 234.284 160.275 234.043C159.834 233.802 159.121 233.362 158.297 232.642L184.637 202.538ZM162.19 196.332C161.597 196.503 162.936 195.988 165.212 196.746C167.671 197.566 168.891 199.087 169.123 199.438L135.732 221.462C139.477 227.14 145.004 232.174 152.563 234.694C159.938 237.152 167.171 236.524 173.265 234.768L162.19 196.332ZM169.324 199.749C167.633 197.08 166.627 195.072 166.067 193.672L128.928 208.528C130.635 212.795 132.915 217.02 135.531 221.151L169.324 199.749ZM166.067 193.672C164.919 190.802 163.929 188.355 163.101 186.345L126.114 201.575C126.873 203.418 127.809 205.731 128.928 208.528L166.067 193.672ZM162.592 185.211C159.929 179.736 156.721 174.641 152.862 170.111L122.412 196.049C123.767 197.639 125.206 199.797 126.623 202.709L162.592 185.211ZM119.115 175.534C117.644 179.145 116.075 183.501 114.414 188.485L152.361 201.135C153.873 196.599 155.137 193.135 156.159 190.626L119.115 175.534ZM114.343 188.701C112.511 194.415 110.451 200.379 108.16 206.596L145.694 220.424C148.164 213.721 150.411 207.219 152.432 200.919L114.343 188.701ZM126.927 233.51H127.777V193.51H126.927V233.51ZM143.824 106.487C141.675 111.35 140.106 114.964 139.204 117.155L176.191 132.385C176.875 130.723 178.253 127.537 180.411 122.653L143.824 106.487ZM139.204 117.155C137.624 120.991 135.874 125.225 133.953 129.86L170.902 145.18C172.834 140.521 174.597 136.256 176.191 132.385L139.204 117.155ZM132.611 134.818C132.455 135.963 132.323 136.855 132.215 137.523C132.099 138.242 132.043 138.497 132.054 138.451L171.101 147.129C171.527 145.212 171.904 142.717 172.244 140.222L132.611 134.818ZM165.719 156.932L168.099 154.552L139.815 126.268L137.435 128.648L165.719 156.932ZM162.473 158.506L165.363 157.146L148.331 120.954L145.441 122.314L162.473 158.506ZM166.56 156.533C168.52 155.444 170.288 154.48 171.869 153.637L153.046 118.343C151.226 119.313 149.254 120.389 147.134 121.567L166.56 156.533ZM171.869 153.637C175.307 151.803 178.432 149.49 181.189 146.732L152.905 118.448C152.915 118.438 152.94 118.415 152.975 118.389C153.011 118.363 153.037 118.347 153.046 118.343L171.869 153.637ZM181.189 146.732C187.046 140.875 190.536 133.154 192.857 126.055L154.837 113.625C154.138 115.765 153.513 117.177 153.055 118.036C152.583 118.921 152.461 118.892 152.905 118.448L181.189 146.732ZM193.847 119.84C193.847 120.737 193.708 121.538 193.514 122.187L155.201 110.693C154.326 113.608 153.847 116.676 153.847 119.84H193.847ZM192.927 123.868C194.027 121.118 194.795 118.158 195.108 115.03L155.307 111.05C155.393 110.188 155.594 109.496 155.788 109.012L192.927 123.868ZM194.885 116.618C195.745 111.888 195.523 105.742 192.078 99.8098C188.723 94.0323 183.723 90.8967 179.72 89.2591L164.575 126.281C163.065 125.663 159.821 123.916 157.487 119.895C155.062 115.719 155.123 111.698 155.53 109.462L194.885 116.618ZM174.137 87.8693C166.656 87.1211 160.749 90.0376 157.306 92.3103C153.737 94.6655 150.797 97.6406 148.462 100.364L178.832 126.396C179.898 125.153 180.074 125.209 179.339 125.695C178.729 126.097 175.372 128.192 170.157 127.671L174.137 87.8693ZM148.462 100.364C148.532 100.283 149.228 99.4563 150.476 98.4854C151.122 97.9833 152.295 97.1426 153.947 96.3719C155.544 95.6266 158.391 94.57 162.117 94.57V134.57C169.258 134.57 173.99 130.872 175.034 130.06C176.792 128.692 178.083 127.27 178.832 126.396L148.462 100.364Z" fill="black" mask="url(#path-2-outside-1_64_4)"/>
</svg>
